PathFileType	4	(X/Y/Z)	D:\Share\Shared_Data\Ergonomics\Sit To Stand Pertubation\S3\Perturbed.trc
DataRate	CameraRate	NumFrames	NumMarkers	Units	OrigDataRate	OrigDataStartFrame	OrigNumFrames	
100	100	18	18	m	100	3974	231
Frame#	Time	R_ASIS			R_Pelvis			V_Sacral			L_Pelvis			L_ASIS			Clavical			R_Acromium			L_Acromium			Sternum			Torso			R_Thigh_Med			R_Thigh_Lat			R_Thigh			R_Shank_Med			R_Shank_Lat			R_Shank			R_Heel			R_Toe			
		X1	Y1	Z1	X2	Y2	Z2	X3	Y3	Z3	X4	Y4	Z4	X5	Y5	Z5	X6	Y6	Z6	X7	Y7	Z7	X8	Y8	Z8	X9	Y9	Z9	X10	Y10	Z10	X11	Y11	Z11	X12	Y12	Z12	X13	Y13	Z13	X14	Y14	Z14	X15	Y15	Z15	X16	Y16	Z16	X17	Y17	Z17	X18	Y18	Z18	

3974	39.73	0.36820236	0.94397095	0.14626047	0.25473439	0.94949554	0.1909417	0.1593279	0.97676935	-0.0040354218	0.28487128	0.96192029	-0.19370662	0.38624216	0.93841827	-0.13784502	0.38278778	1.3733774	0.0073932533	0.32918005	1.4298539	0.17465869	0.33885648	1.4339442	-0.14733366	0.40451675	1.2958955	0.011063	0.38955054	1.3604547	-0.058407703	0.34665845	0.46228418	0.046746441	0.31931747	0.45719644	0.15127058	0.39821161	0.66372437	0.11311477	0.28692169	0.10492207	0.099656479	0.26473389	0.096847626	0.178965	0.26257007	0.28553391	0.17906393	0.20931575	0.050610874	0.13408028	0.42881567	0.054825569	0.13610091
3975	39.74	0.37099582	0.94456012	0.14679892	0.25704584	0.94951923	0.19084467	0.16190732	0.97589618	-0.0043328567	0.28801263	0.96148767	-0.19386804	0.38954208	0.93857977	-0.13767857	0.38192654	1.373604	0.0076506758	0.32767639	1.4297443	0.17507549	0.33741748	1.4340308	-0.14722676	0.40419342	1.2962693	0.011433503	0.38872815	1.3606865	-0.058105087	0.3432291	0.46202908	0.046507366	0.31579254	0.45744543	0.15102495	0.39818442	0.66276868	0.11352031	0.28692065	0.10489715	0.099806885	0.26457742	0.096710907	0.17909599	0.26009702	0.28561441	0.17899622	0.2092356	0.050568027	0.1341823	0.42873135	0.054843525	0.1361277
3976	39.75	0.37362469	0.94491595	0.14731361	0.25923904	0.94945117	0.19078346	0.16436508	0.97498376	-0.0046725917	0.29104041	0.96090021	-0.19408289	0.39263278	0.93843628	-0.13750195	0.38115244	1.3735439	0.0078919845	0.32627875	1.4293951	0.17547864	0.33614401	1.4338667	-0.14713968	0.403927	1.2963397	0.011796882	0.38796948	1.3606151	-0.057802246	0.34026361	0.46172665	0.046579967	0.31270758	0.45762613	0.15102945	0.39817126	0.66179163	0.11415243	0.28681265	0.10488555	0.10002217	0.26439825	0.096565559	0.1792926	0.25793301	0.28564029	0.17913416	0.20915555	0.050369381	0.13417529	0.42863788	0.054857025	0.13618402
3977	39.76	0.37606775	0.94505438	0.14777585	0.26131015	0.94932812	0.19076677	0.16669496	0.97409692	-0.0050488949	0.29392053	0.96022675	-0.19435432	0.39549362	0.93804352	-0.13733444	0.38045932	1.3732581	0.0081143179	0.32497168	1.4288542	0.17587378	0.33501733	1.4335076	-0.14708093	0.40371411	1.2961641	0.012148842	0.38727029	1.3603011	-0.057502495	0.33787225	0.46139758	0.046894455	0.31022635	0.45773187	0.15122627	0.39826193	0.66083112	0.11495495	0.286586	0.10487394	0.10027581	0.26421909	0.09641671	0.1795381	0.25621231	0.28561563	0.17943694	0.20908405	0.050065144	0.1340881	0.42854944	0.054858875	0.13626398
3978	39.77	0.37830695	0.94500171	0.14816048	0.26325235	0.94918256	0.1907966	0.16889218	0.97329767	-0.0054477162	0.29661429	0.95954132	-0.19467288	0.39810907	0.93747675	-0.13719504	0.37983847	1.3728191	0.0083157644	0.32373541	1.4281733	0.17626385	0.33401031	1.4330149	-0.14705902	0.40355249	1.2958082	0.012484563	0.38662827	1.3598138	-0.057210377	0.33612711	0.46107196	0.047356693	0.30847879	0.45776303	0.15154163	0.39853726	0.65993439	0.11583593	0.28624664	0.10485488	0.10052745	0.26406323	0.096278313	0.17980182	0.25504413	0.28555002	0.17984447	0.20902994	0.049743565	0.13397736	0.42848242	0.054843204	0.13635777
3979	39.78	0.38033112	0.94479663	0.14845102	0.2650567	0.94903821	0.19086525	0.17095061	0.97263715	-0.0058453474	0.29908417	0.95891315	-0.1950136	0.40047379	0.9368233	-0.13709985	0.37928	1.3723048	0.0084956245	0.32254996	1.42741	0.17664796	0.33309491	1.4324548	-0.14707883	0.40344037	1.2953448	0.012798789	0.38604495	1.3592291	-0.056930183	0.335043	0.4607829	0.047861511	0.30752963	0.45772742	0.1518969	0.39905228	0.65915247	0.11667637	0.28581924	0.10482928	0.10072883	0.26395123	0.096171333	0.18004233	0.25448396	0.28545847	0.18028549	0.20900061	0.049470676	0.13388007	0.42845218	0.054806614	0.13645421
3980	39.79	0.3821395	0.9444884	0.14864299	0.26671472	0.94890723	0.19095457	0.17285979	0.97214667	-0.006209795	0.30130026	0.9583974	-0.19533839	0.40259402	0.93617371	-0.1370585	0.37877408	1.3717916	0.0086537905	0.32140091	1.4266263	0.17702188	0.33225143	1.4318927	-0.14713771	0.40337521	1.2948479	0.013085911	0.38552524	1.3586233	-0.056665993	0.33456952	0.46055774	0.048310589	0.30735635	0.45763882	0.15222241	0.39982501	0.65852991	0.11735094	0.28535431	0.10480247	0.10084119	0.26389786	0.096114555	0.18021808	0.25451057	0.2853598	0.18068768	0.20900023	0.049277641	0.13380605	0.42846884	0.054749157	0.13654309
3981	39.8	0.38374289	0.94413275	0.14874393	0.26822186	0.94878918	0.19103824	0.17460757	0.97183167	-0.0065084205	0.30324619	0.95802612	-0.19560387	0.40448688	0.93560999	-0.13707129	0.37831201	1.3713455	0.0087906618	0.32028131	1.4258837	0.17737636	0.33147443	1.4313889	-0.14722336	0.40335239	1.2943853	0.013340331	0.38507458	1.3580663	-0.056422714	0.33460098	0.46041266	0.048628494	0.30784744	0.45751566	0.15246687	0.40083401	0.65809503	0.11775591	0.28492249	0.10477901	0.10085103	0.26390503	0.096116966	0.18030023	0.25501924	0.28527383	0.18098872	0.20902826	0.049171093	0.13375029	0.42853421	0.054674824	0.13661662
3982	39.81	0.38516226	0.94378534	0.14877087	0.2695799	0.94867407	0.19108623	0.176186	0.97167017	-0.0067189803	0.30492337	0.95780365	-0.19577214	0.40617764	0.93519464	-0.13712827	0.37788867	1.3710117	0.0089082451	0.31919025	1.425236	0.17769547	0.33077322	1.4309905	-0.14731458	0.40336426	1.2940118	0.013557335	0.38469586	1.3576129	-0.056205978	0.33500122	0.46035098	0.048773014	0.30882101	0.45738007	0.1526013	0.40202341	0.65785229	0.11783379	0.28459183	0.10476128	0.10077113	0.26395868	0.096176849	0.18027812	0.2558398	0.2852179	0.18114778	0.20907979	0.049142746	0.13370319	0.4286413	0.054590683	0.13667044
3983	39.82	0.38642502	0.94349628	0.14874619	0.27079794	0.94854761	0.19107281	0.17759479	0.97161737	-0.0068359332	0.3063526	0.95770935	-0.19582079	0.40769644	0.93496289	-0.13721098	0.37750314	1.3708103	0.0090104475	0.31813336	1.4247239	0.17795905	0.3301691	1.4307283	-0.14738547	0.40340042	1.2937611	0.013733998	0.38438818	1.357296	-0.056020916	0.33562967	0.46036487	0.048738998	0.31005951	0.45725534	0.15261958	0.40331314	0.65778271	0.11758547	0.28441025	0.10474984	0.10063229	0.26403781	0.096282967	0.18016017	0.25677682	0.28520428	0.18115334	0.2091469	0.049176872	0.13365675	0.42877634	0.054505199	0.13670367
3984	39.83	0.38756027	0.94330377	0.1486935	0.27189148	0.94839819	0.19098557	0.17884146	0.97161487	-0.0068704634	0.30757239	0.95770526	-0.1957485	0.4090744	0.93492053	-0.13729697	0.37715796	1.370736	0.0091017752	0.31712369	1.4243706	0.17814854	0.32969052	1.430613	-0.14741136	0.40344888	1.2936456	0.013869686	0.3841459	1.3571262	-0.055870632	0.33636285	0.46043781	0.048556175	0.31135049	0.4571608	0.15253784	0.40461456	0.65784949	0.11706731	0.28439896	0.10474352	0.10047366	0.26412634	0.096417511	0.17997212	0.25765665	0.28523828	0.18102393	0.20922087	0.049255291	0.13360707	0.42892206	0.054426567	0.13671803
3985	39.84	0.38859369	0.94323083	0.14863422	0.27287918	0.9482226	0.19083118	0.17994118	0.97160254	-0.0068476949	0.3086333	0.9577475	-0.19557744	0.41034024	0.93504736	-0.13736511	0.37685675	1.3707677	0.0091859856	0.31617947	1.424182	0.1782527	0.32936597	1.4306357	-0.14737569	0.40349991	1.2936586	0.013966534	0.38396063	1.3570981	-0.055754288	0.33710449	0.46054745	0.04828035	0.31252402	0.45710739	0.15238887	0.40584735	0.65800586	0.11637701	0.2845481	0.10474057	0.10033198	0.26421552	0.096561142	0.17975098	0.25836334	0.28531766	0.18080046	0.20929367	0.049360065	0.13355444	0.42906171	0.054361153	0.13671741
3986	39.85	0.38954315	0.94328284	0.14858537	0.27377899	0.94802942	0.19063416	0.18091461	0.97153021	-0.0068018823	0.30958997	0.95779712	-0.19535007	0.41151645	0.93530432	-0.13740007	0.37660211	1.3708771	0.0092655783	0.31531876	1.4241447	0.17827098	0.32921411	1.4307723	-0.14727458	0.40354858	1.2937842	0.014029971	0.38382401	1.3571963	-0.05566605	0.33778537	0.46066916	0.047978428	0.31347495	0.45709692	0.15221164	0.40695303	0.65820215	0.11563435	0.28481281	0.1047403	0.10023038	0.26429971	0.096697746	0.17953473	0.25885294	0.28543332	0.18053423	0.20935918	0.049475128	0.13350201	0.42918234	0.054312386	0.13670694
3987	39.86	0.39041785	0.94344806	0.14855844	0.27460431	0.94783752	0.19042874	0.1817851	0.9713656	-0.0067695189	0.3104928	0.95782654	-0.19512025	0.41261765	0.93564191	-0.13739452	0.37639359	1.3710359	0.0093420973	0.31455405	1.4242291	0.17821416	0.32923492	1.4309905	-0.14711797	0.40359442	1.2940034	0.014068632	0.38372971	1.3574012	-0.055596909	0.33836301	0.46077899	0.047712997	0.31416687	0.45712387	0.15204027	0.40790244	0.65839148	0.11496073	0.28512378	0.10474384	0.10017382	0.26437369	0.096816399	0.17935284	0.25914435	0.28557053	0.18027449	0.20941386	0.049587624	0.13345416	0.42927689	0.054280388	0.13669232
3988	39.87	0.39122012	0.94370105	0.14855908	0.27536292	0.94767047	0.1902484	0.182577	0.97109808	-0.0067819872	0.31138184	0.95782233	-0.1949404	0.41365222	0.93600745	-0.13734993	0.37622733	1.3712212	0.009416688	0.31388977	1.4243962	0.17810255	0.32940912	1.4312551	-0.14692628	0.40363864	1.2942998	0.014093056	0.38367294	1.3576917	-0.055538372	0.33882916	0.46085754	0.047531857	0.31462119	0.45717697	0.15189954	0.40869476	0.65853241	0.11446002	0.28541357	0.10475274	0.10015459	0.26443402	0.096911179	0.17922173	0.25929541	0.28571136	0.18005869	0.20945689	0.049688461	0.13341472	0.42934399	0.054262539	0.13667885
3989	39.88	0.39194925	0.94400696	0.14858817	0.27605698	0.94754865	0.19011722	0.18331474	0.97073645	-0.0068598781	0.31228271	0.9577829	-0.19484964	0.41462408	0.93635187	-0.13727501	0.37609677	1.3714163	0.0094901848	0.31332251	1.4246023	0.17796167	0.32970511	1.4315316	-0.14672423	0.40368222	1.2946593	0.014113528	0.38364954	1.3580437	-0.055485168	0.33921191	0.46089224	0.047463005	0.31489651	0.45724164	0.15180458	0.40935056	0.65859338	0.11420323	0.28563983	0.10476756	0.1001612	0.26448016	0.096980598	0.17914511	0.25937509	0.28583896	0.17990669	0.20948997	0.049772461	0.13338596	0.42938736	0.054254234	0.1366709
3990	39.89	0.39260498	0.94432745	0.14864363	0.2766846	0.94748279	0.19004393	0.18402098	0.97030383	-0.0070107198	0.31320407	0.95771503	-0.19486707	0.41553336	0.93663513	-0.13718266	0.37599371	1.3716105	0.0095626869	0.31284198	1.4248047	0.17781746	0.33008725	1.4317889	-0.14653442	0.40372559	1.2950676	0.014137757	0.3836553	1.3584335	-0.055435596	0.33956372	0.46087653	0.047513981	0.31506699	0.45730264	0.15176234	0.40990536	0.6585528	0.11422001	0.28579077	0.10478732	0.10018353	0.26451456	0.097026901	0.17911682	0.25944211	0.28594189	0.17982013	0.20951672	0.049838264	0.13336798	0.42941373	0.05425016	0.13667148
3991	39.9	0.39318903	0.94462579	0.14872183	0.27724139	0.94747113	0.19002046	0.18471317	0.96983167	-0.0072299366	0.31413849	0.95762897	-0.19498965	0.41637662	0.93683008	-0.13708723	0.37590936	1.3717977	0.0096329994	0.31243323	1.4249685	0.17769151	0.33051926	1.4320022	-0.14637428	0.40376913	1.295509	0.014169152	0.38368668	1.3588381	-0.055390041	0.33994287	0.46080801	0.047674252	0.31520309	0.4573483	0.15177237	0.41040555	0.658396	0.11449781	0.28587753	0.10480963	0.1002141	0.26454123	0.097054848	0.17912408	0.25953342	0.28601654	0.17978629	0.20954111	0.049887772	0.13335872	0.42943069	0.05424575	0.13668164
